<?xml version="1.0" standalone="no"?>
<!DOCTYPE svg PUBLIC "-//W3C//DTD SVG 20010904//EN"
 "http://www.w3.org/TR/2001/REC-SVG-20010904/DTD/svg10.dtd">
<svg version="1.0" xmlns="http://www.w3.org/2000/svg"
 width="500.000000pt" height="500.000000pt" viewBox="0 0 500.000000 500.000000"
 preserveAspectRatio="xMidYMid meet">
<metadata>
Created by potrace 1.11, written by Peter Selinger 2001-2013
</metadata>
<g transform="translate(0.000000,500.000000) scale(0.100000,-0.100000)"
fill="#000000" stroke="none">
<path d="M2011 4987 c-97 -50 -79 -199 27 -224 l37 -9 2 -552 2 -552 -22 -1
c-149 -8 -403 -63 -522 -114 -16 -7 -59 -25 -95 -40 -295 -126 -582 -369 -778
-661 -120 -179 -220 -423 -262 -642 -88 -454 -9 -916 222 -1302 28 -46 55 -89
59 -95 5 -5 37 -46 71 -90 216 -280 522 -495 863 -610 86 -29 220 -62 283 -71
26 -3 56 -8 67 -11 39 -9 361 -11 425 -2 36 5 83 12 105 15 190 26 460 128
650 244 218 134 445 356 581 570 127 200 235 477 260 669 3 19 6 37 9 40 19
32 23 433 4 535 -4 23 -10 60 -13 83 -13 102 -71 290 -124 408 -111 245 -288
482 -474 636 -29 24 -58 48 -65 54 -7 5 -19 16 -27 22 -8 7 -53 38 -100 68
-266 173 -578 276 -886 292 -63 3 -117 7 -119 9 -6 5 -9 434 -3 451 3 8 327
11 1303 11 715 0 1303 3 1306 6 5 4 8 629 4 704 -1 9 -270 12 -1310 12 l-1310
0 3 35 c9 86 -94 153 -173 112z"/>
</g>
</svg>
